<svg viewBox="0 0 299 37" xmlns="http://www.w3.org/2000/svg" data-logo="logo">
        <g transform="translate(0, 1) rotate(0)" id="logogram" style="opacity: 1;"><path fill="#007AFF" d="M16.2628 0.600006H37.3443L21.8451 23.5729H0.76355L16.2628 0.600006Z"></path><path fill="#312ECB" d="M17.1859 25.702L11.1827 34.6H33.2643L48.7635 11.6271H32.4659L22.9699 25.702H17.1859Z"></path></g>
        <g transform="translate(55, 6)" id="logotype" style="opacity: 1;"><path d="M12.96 25L6.25 25L18.46 0.01L26.37 0.01L38.55 25L31.27 25L21.26 3.44L23.05 3.44L12.96 25ZM30.78 19.79L13.46 19.79L13.46 14.88L30.78 14.88L30.78 19.79ZM48.42 25.49L48.42 25.49Q46.39 25.49 44.87 24.91Q43.34 24.34 42.31 23.23Q41.28 22.13 40.76 20.54Q40.23 18.95 40.23 16.91L40.23 16.91L40.23 7.01L46.64 7.01L46.64 15.62Q46.64 17.20 47.13 18.35Q47.62 19.50 48.63 20.12Q49.65 20.73 51.19 20.73L51.19 20.73Q52.87 20.73 54.04 20.06Q55.21 19.40 55.82 18.24Q56.44 17.09 56.44 15.51L56.44 15.51L56.44 7.01L62.84 7.01L62.84 25L56.44 25L56.44 19.96L57.03 20.98Q55.98 23.07 53.78 24.28Q51.57 25.49 48.42 25.49ZM75.19 25.49L75.19 25.49Q72.64 25.49 70.42 24.42Q68.19 23.36 66.83 21.24Q65.47 19.12 65.47 15.97L65.47 15.97Q65.47 14.08 65.97 12.56Q66.48 11.03 67.41 9.90Q68.33 8.76 69.56 8.02Q70.78 7.29 72.22 6.90Q73.66 6.52 75.19 6.52L75.19 6.52Q77.36 6.52 79.08 7.03Q80.80 7.53 82.00 8.41Q83.21 9.28 83.88 10.37L83.88 10.37L83.31 11.56L83.31 0.01L89.72 0.01L89.72 25L83.31 25L83.31 20.45L83.88 21.64Q83.11 22.86 81.79 23.74Q80.48 24.61 78.80 25.05Q77.12 25.49 75.19 25.49ZM77.64 20.98L77.64 20.98Q78.73 20.98 79.64 20.73Q80.55 20.48 81.25 20.01Q81.95 19.54 82.41 18.93Q82.86 18.31 83.11 17.56Q83.35 16.81 83.35 16.00L83.35 16.00Q83.35 14.60 82.69 13.48Q82.02 12.36 80.74 11.70Q79.47 11.03 77.64 11.03L77.64 11.03Q76.56 11.03 75.67 11.28Q74.78 11.52 74.09 12.00Q73.41 12.47 72.94 13.08Q72.47 13.69 72.24 14.43Q72.01 15.16 72.01 16.00L72.01 16.00Q72.01 17.34 72.66 18.47Q73.31 19.61 74.56 20.29Q75.83 20.98 77.64 20.98ZM99.97 25L93.57 25L93.57 7.01L99.97 7.01L99.97 25ZM100.01 4.84L93.53 4.84L93.53 0.01L100.01 0.01L100.01 4.84ZM118.88 25L112.47 25Q109.60 25 107.92 23.46Q106.24 21.92 106.24 19.16L106.24 19.16L106.24 2.14L112.64 2.14L112.64 18.11Q112.64 19.40 113.33 20.10Q114.01 20.80 115.34 20.80L115.34 20.80L118.88 20.80L118.88 25ZM106.80 11.14L102.08 11.14L102.08 7.01L106.80 7.01L106.80 11.14ZM118.88 11.14L112.09 11.14L112.09 7.01L118.88 7.01L118.88 11.14ZM138.51 25L131.82 25L131.82 0.01L148.87 0.01Q151.11 0.01 152.88 0.57Q154.65 1.13 155.89 2.21Q157.13 3.30 157.80 4.86Q158.46 6.41 158.46 8.38L158.46 8.38Q158.46 10.37 157.80 11.93Q157.13 13.48 155.89 14.57Q154.65 15.65 152.88 16.21Q151.11 16.77 148.87 16.77L148.87 16.77L138.51 16.77L138.51 25ZM138.51 5.08L138.51 11.66L148.24 11.66Q149.22 11.66 149.96 11.26Q150.69 10.86 151.11 10.12Q151.53 9.39 151.53 8.38L151.53 8.38Q151.53 6.83 150.62 5.96Q149.71 5.08 148.24 5.08L148.24 5.08L138.51 5.08ZM169.06 25.49L169.06 25.49Q167.03 25.49 165.51 24.91Q163.99 24.34 162.96 23.23Q161.93 22.13 161.40 20.54Q160.88 18.95 160.88 16.91L160.88 16.91L160.88 7.01L167.28 7.01L167.28 15.62Q167.28 17.20 167.77 18.35Q168.26 19.50 169.28 20.12Q170.29 20.73 171.83 20.73L171.83 20.73Q173.51 20.73 174.68 20.06Q175.85 19.40 176.47 18.24Q177.08 17.09 177.08 15.51L177.08 15.51L177.08 7.01L183.49 7.01L183.49 25L177.08 25L177.08 19.96L177.68 20.98Q176.63 23.07 174.42 24.28Q172.22 25.49 169.06 25.49ZM193.18 25L186.78 25L186.78 0.01L193.18 0.01L193.18 25ZM206.90 25.49L206.90 25.49Q203.99 25.49 201.95 25.04Q199.90 24.58 198.59 23.79Q197.27 23.00 196.63 21.95Q195.98 20.91 195.84 19.75L195.84 19.75L202.24 19.75Q202.42 20.20 202.93 20.61Q203.43 21.01 204.41 21.22Q205.39 21.43 206.90 21.43L206.90 21.43Q208.33 21.43 209.26 21.22Q210.19 21.01 210.64 20.61Q211.10 20.20 211.10 19.71L211.10 19.71Q211.10 19.19 210.71 18.91Q210.33 18.63 209.45 18.49L209.45 18.49L203.75 17.79Q199.90 17.30 198.11 16.00Q196.33 14.71 196.33 12.40L196.33 12.40Q196.33 11.07 196.98 10.00Q197.62 8.93 198.88 8.15Q200.14 7.36 202.05 6.94Q203.96 6.52 206.44 6.52L206.44 6.52Q210.01 6.52 212.19 7.20Q214.35 7.88 215.44 9.11Q216.52 10.33 216.73 12.01L216.73 12.01L210.33 12.01Q210.26 11.56 209.80 11.24Q209.35 10.93 208.51 10.75Q207.67 10.58 206.34 10.58L206.34 10.58Q205.11 10.58 204.33 10.77Q203.54 10.96 203.15 11.30Q202.77 11.63 202.77 12.08L202.77 12.08Q202.77 12.61 203.21 12.87Q203.64 13.13 204.45 13.27L204.45 13.27L210.96 14.08Q212.92 14.32 214.41 14.92Q215.89 15.51 216.77 16.62Q217.64 17.72 217.64 19.43L217.64 19.43Q217.64 20.94 216.93 22.08Q216.21 23.21 214.83 23.98Q213.44 24.75 211.43 25.12Q209.42 25.49 206.90 25.49ZM231.57 25.49L231.57 25.49Q227.76 25.49 225.06 24.30Q222.37 23.11 220.95 20.96Q219.53 18.80 219.53 16.00L219.53 16.00Q219.53 14.29 220.04 12.84Q220.55 11.38 221.55 10.21Q222.54 9.04 224.01 8.22Q225.48 7.39 227.37 6.96Q229.26 6.52 231.54 6.52L231.54 6.52Q234.34 6.52 236.53 7.15Q238.71 7.78 240.22 9.13Q241.72 10.47 242.49 12.50Q243.26 14.53 243.23 17.34L243.23 17.34L223.63 17.34L223.63 14.11L236.75 14.11Q236.58 13.27 236.14 12.64Q235.70 12.01 235.02 11.58Q234.34 11.14 233.46 10.93Q232.59 10.72 231.50 10.72L231.50 10.72Q230.38 10.72 229.46 10.98Q228.53 11.24 227.83 11.70Q227.13 12.15 226.69 12.80Q226.25 13.45 226.01 14.25Q225.76 15.06 225.76 16.00L225.76 16.00Q225.76 17.54 226.41 18.73Q227.06 19.93 228.37 20.61Q229.68 21.29 231.61 21.29L231.61 21.29Q233.29 21.29 234.50 20.89Q235.70 20.48 236.33 19.68L236.33 19.68L242.98 19.68Q242.56 21.25 241.27 22.59Q239.97 23.91 237.61 24.70Q235.25 25.49 231.57 25.49Z" fill="#99999"></path></g>
        
      </svg>